# xmcd CD database file
#
# Track frame offsets:
#	150
#	59155
#	101257
#	170607
#
# Disc length: 2790 seconds
#
# Revision: 2
# Processed by: cddbd v1.5.1PL0 Copyright (c) Steve Scherf et al.
# Submitted via: CDex 1.51
#
DISCID=310ae404
DTITLE=Charles Mingus - Charles Mingus Presents Charles Mingus
DYEAR=1960
DGENRE=Jazz
TTITLE0=Folk Forms No. 1
TTITLE1=Original Faubus Fables
TTITLE2=What Love
TTITLE3=All The Things You Could Be By Now If Sigmund Freud's Wife Was Your Mother
EXTD=Eric Dolphy - as, bcl\nTed Curson - tp\nCharles Mingus - b\nDannie Richmond - d\n\nRecorded November 19, 1960 NYC\n\nsubmitted 2/19/98 dhh YEAR: 1960
EXTT0=
EXTT1=
EXTT2=
EXTT3=
PLAYORDER=
